<svg width="23" height="11" viewBox="0 0 23 11" fill="none" xmlns="http://www.w3.org/2000/svg">
<path fill-rule="evenodd" clip-rule="evenodd" d="M19.7948 6.9943C20.5577 7.62381 21.363 8.21609 22.0472 8.90908C22.3495 9.21704 22.6357 9.53483 22.8546 9.89221C23.1648 10.4003 22.8839 10.9593 22.3448 10.9897L18.9941 10.9884C18.1299 11.049 17.4405 10.755 16.8608 10.2556C16.3969 9.85626 15.9673 9.43124 15.5212 9.01842C15.3384 8.84969 15.1469 8.69092 14.9183 8.56543C14.4609 8.31451 14.0638 8.39134 13.8024 8.79451C13.5362 9.20458 13.4758 9.65866 13.4497 10.1157C13.4138 10.7825 13.1753 10.9578 12.3827 10.9883C10.6889 11.0558 9.08144 10.8393 7.58814 10.1171C6.27158 9.48054 5.25065 8.58184 4.36204 7.56442C2.63191 5.58328 1.30696 3.40634 0.116158 1.1684C-0.151883 0.66419 0.0441411 0.393532 0.702418 0.383953C1.79551 0.366007 2.88846 0.367284 3.98284 0.382676C4.42711 0.388168 4.72122 0.603518 4.89276 0.958221C5.48416 2.18716 6.2078 3.35639 7.11614 4.44017C7.35803 4.72871 7.60469 5.01725 7.95593 5.22034C8.3445 5.44521 8.64035 5.37068 8.82315 5.00486C8.93915 4.77291 8.98993 4.52307 9.01608 4.27464C9.10268 3.41994 9.11409 2.56671 8.9622 1.71501C8.86895 1.18347 8.51468 0.83937 7.88708 0.738783C7.56683 0.6875 7.61451 0.586786 7.76958 0.432298C8.0389 0.165856 8.29221 0 8.79716 0H12.584C13.1801 0.0994369 13.3125 0.325772 13.3941 0.832728L13.3974 4.38761C13.3909 4.58387 13.5134 5.16625 13.9317 5.29615C14.2664 5.38862 14.4871 5.16229 14.6879 4.98289C15.5946 4.16964 16.2417 3.20855 16.8198 2.21335C17.0764 1.77575 17.2969 1.32129 17.5107 0.867215C17.6691 0.530266 17.9177 0.364474 18.3668 0.371818L22.0114 0.374565C22.1194 0.374565 22.2288 0.375906 22.3334 0.391042C22.9476 0.479494 23.1159 0.702764 22.9262 1.20959C22.6273 2.00477 22.0458 2.66742 21.4772 3.33315C20.8694 4.04389 20.2194 4.73031 19.6167 5.44527C19.0629 6.09816 19.1069 6.42725 19.7948 6.9943Z" fill="white"/>
</svg>
