<svg width="28" height="20" viewBox="0 0 28 20" fill="none" xmlns="http://www.w3.org/2000/svg">
<path d="M27.125 9.91797C27.125 9.85352 27.125 9.78028 27.1221 9.69531C27.1191 9.45801 27.1133 9.19141 27.1074 8.90723C27.084 8.08985 27.043 7.27539 26.9785 6.50781C26.8906 5.4502 26.7617 4.56836 26.5859 3.90625C26.4004 3.21528 26.0368 2.5851 25.5315 2.0787C25.0261 1.5723 24.3966 1.20741 23.7061 1.02051C22.877 0.797851 21.2539 0.660156 18.9688 0.575195C17.8818 0.53418 16.7187 0.507812 15.5557 0.493164C15.1484 0.487305 14.7705 0.484375 14.4307 0.481445H13.5693C13.2295 0.484375 12.8516 0.487305 12.4443 0.493164C11.2812 0.507812 10.1182 0.53418 9.03125 0.575195C6.74609 0.663086 5.12012 0.800781 4.29395 1.02051C3.60313 1.20695 2.97345 1.57169 2.468 2.07816C1.96256 2.58463 1.5991 3.21506 1.41406 3.90625C1.23535 4.56836 1.10938 5.4502 1.02148 6.50781C0.957031 7.27539 0.916016 8.08985 0.892578 8.90723C0.883789 9.19141 0.880859 9.45801 0.87793 9.69531C0.87793 9.78028 0.875 9.85352 0.875 9.91797V10.082C0.875 10.1465 0.875 10.2197 0.87793 10.3047C0.880859 10.542 0.886719 10.8086 0.892578 11.0928C0.916016 11.9102 0.957031 12.7246 1.02148 13.4922C1.10938 14.5498 1.23828 15.4316 1.41406 16.0938C1.78906 17.4971 2.89062 18.6045 4.29395 18.9795C5.12012 19.2022 6.74609 19.3398 9.03125 19.4248C10.1182 19.4658 11.2812 19.4922 12.4443 19.5068C12.8516 19.5127 13.2295 19.5156 13.5693 19.5186H14.4307C14.7705 19.5156 15.1484 19.5127 15.5557 19.5068C16.7187 19.4922 17.8818 19.4658 18.9688 19.4248C21.2539 19.3369 22.8799 19.1992 23.7061 18.9795C25.1094 18.6045 26.2109 17.5 26.5859 16.0938C26.7646 15.4316 26.8906 14.5498 26.9785 13.4922C27.043 12.7246 27.084 11.9102 27.1074 11.0928C27.1162 10.8086 27.1191 10.542 27.1221 10.3047C27.1221 10.2197 27.125 10.1465 27.125 10.082V9.91797ZM25.0156 10.0703C25.0156 10.1318 25.0156 10.1992 25.0127 10.2783C25.0098 10.5068 25.0039 10.7588 24.998 11.0313C24.9775 11.8105 24.9365 12.5898 24.875 13.3135C24.7959 14.2568 24.6846 15.0303 24.5469 15.5488C24.3652 16.2256 23.832 16.7617 23.1582 16.9404C22.543 17.1045 20.9932 17.2363 18.8867 17.3154C17.8203 17.3564 16.6719 17.3828 15.5264 17.3975C15.125 17.4033 14.7529 17.4063 14.4189 17.4063H13.5811L12.4736 17.3975C11.3281 17.3828 10.1826 17.3564 9.11328 17.3154C7.00684 17.2334 5.4541 17.1045 4.8418 16.9404C4.16797 16.7588 3.63477 16.2256 3.45312 15.5488C3.31543 15.0303 3.2041 14.2568 3.125 13.3135C3.06348 12.5898 3.02539 11.8105 3.00195 11.0313C2.99316 10.7588 2.99023 10.5039 2.9873 10.2783C2.9873 10.1992 2.98438 10.1289 2.98438 10.0703V9.92969C2.98438 9.86817 2.98438 9.80078 2.9873 9.72168C2.99023 9.49317 2.99609 9.24121 3.00195 8.96875C3.02246 8.18945 3.06348 7.41016 3.125 6.68652C3.2041 5.74317 3.31543 4.96973 3.45312 4.45117C3.63477 3.77441 4.16797 3.23828 4.8418 3.05957C5.45703 2.89551 7.00684 2.76367 9.11328 2.68457C10.1797 2.64355 11.3281 2.61719 12.4736 2.60254C12.875 2.59668 13.2471 2.59375 13.5811 2.59375H14.4189L15.5264 2.60254C16.6719 2.61719 17.8174 2.64355 18.8867 2.68457C20.9932 2.7666 22.5459 2.89551 23.1582 3.05957C23.832 3.24121 24.3652 3.77441 24.5469 4.45117C24.6846 4.96973 24.7959 5.74317 24.875 6.68652C24.9365 7.41016 24.9746 8.18945 24.998 8.96875C25.0068 9.24121 25.0098 9.4961 25.0127 9.72168C25.0127 9.80078 25.0156 9.8711 25.0156 9.92969V10.0703ZM11.3926 13.9258L18.1895 9.97071L11.3926 6.07422V13.9258Z" fill="white"/>
</svg>
