<svg width="39" height="40" viewBox="0 0 39 40" fill="none" xmlns="http://www.w3.org/2000/svg">
<g clip-path="url(#clip0_1_573)">
<path d="M36.1107 26.2799L35.7451 24.4049H31.6599L31.0099 26.2665L27.7355 26.2732C29.2943 22.4284 30.8565 18.5851 32.422 14.7432C32.6885 14.0915 33.1614 13.7599 33.8585 13.7632C34.3915 13.7682 35.2609 13.7682 36.4683 13.7649L39 26.2749L36.1107 26.2799ZM32.5796 21.8365H35.2121L34.229 17.1365L32.5796 21.8365ZM11.4725 13.7615L14.7648 13.7649L9.67525 26.2815L6.34238 26.2782C5.50428 22.9721 4.67661 19.6632 3.85938 16.3515C3.69688 15.6915 3.37512 15.2299 2.756 15.0115C1.84149 14.6972 0.922733 14.3961 0 14.1082L0 13.7665H5.26013C6.17013 13.7665 6.7015 14.2182 6.87213 15.1449C7.04437 16.0732 7.47662 18.4365 8.17212 22.2349L11.4725 13.7615ZM19.2887 13.7649L16.6855 26.2782L13.5525 26.2749L16.1525 13.7615L19.2887 13.7649ZM25.6425 13.5332C26.5801 13.5332 27.7615 13.8332 28.4408 14.1082L27.8915 16.7032C27.2772 16.4499 26.2665 16.1082 25.4166 16.1199C24.1816 16.1415 23.4179 16.6732 23.4179 17.1832C23.4179 18.0132 24.7439 18.4315 26.1089 19.3382C27.6672 20.3715 27.872 21.2999 27.8525 22.3082C27.8314 24.4015 26.1089 26.4665 22.4754 26.4665C20.8179 26.4415 20.2199 26.2982 18.8679 25.8065L19.4399 23.0982C20.8162 23.6899 21.3996 23.8782 22.5761 23.8782C23.6535 23.8782 24.5781 23.4315 24.5863 22.6532C24.5928 22.0999 24.2612 21.8249 23.0522 21.1415C21.8433 20.4565 20.1467 19.5082 20.1695 17.6049C20.1971 15.1682 22.4478 13.5332 25.6441 13.5332H25.6425Z" fill="#555555"/>
</g>
<defs>
<clipPath id="clip0_1_573">
<rect width="39" height="40" fill="white"/>
</clipPath>
</defs>
</svg>
