<svg width="51" height="13" viewBox="0 0 51 13" fill="none" xmlns="http://www.w3.org/2000/svg">
<path fill-rule="evenodd" clip-rule="evenodd" d="M8.10332 1.40998C8.50428 1.40794 9.69588 1.31675 10.2006 2.76417C10.5406 3.73917 11.0822 5.33627 11.8254 7.55546H12.1281C12.9251 5.21583 13.4726 3.61874 13.7706 2.76417C14.2806 1.30167 15.5556 1.41001 16.0656 1.41001L20.0004 1.41001V11.81H15.99V5.68111H15.721L13.4854 11.81H10.4681L8.23248 5.67657H7.96355V11.81H3.95312V1.41001L8.10332 1.40998ZM25.7593 1.41001V7.54345H26.0792L28.7986 2.49997C29.3265 1.4963 30.4516 1.41001 30.4516 1.41001H34.3325V11.81H30.2383V5.67657H29.9184L27.2523 10.7201C26.7244 11.7192 25.546 11.81 25.546 11.81H21.6651V1.41001H25.7593ZM48.4838 6.35216C47.9127 7.72723 46.1193 8.71201 44.1337 8.71201H39.8401V11.81H35.9468V6.35216H48.4838Z" fill="#555555"/>
<path fill-rule="evenodd" clip-rule="evenodd" d="M44.322 1.41064H35.7432C35.9473 3.72604 38.2941 5.70816 40.7234 5.70816H48.7549C49.2184 3.7838 47.6228 1.41064 44.322 1.41064Z" fill="#555555"/>
</svg>
