<svg width="43" height="45" viewBox="0 0 43 45" fill="none" xmlns="http://www.w3.org/2000/svg">
<path d="M13.2301 8.97951C11.5333 8.97928 9.85307 9.32884 8.28538 10.0082C6.71768 10.6876 5.29321 11.6835 4.09331 12.939C2.89342 14.1946 1.9416 15.6852 1.29222 17.3257C0.64283 18.9662 0.308594 20.7246 0.308594 22.5003C0.309048 25.0699 1.00919 27.5862 2.32699 29.7543C3.6448 31.9225 5.52571 33.6528 7.74938 34.7425C9.97306 35.8322 12.4474 36.2363 14.8826 35.9073C17.3178 35.5783 19.613 34.5299 21.4993 32.8849C23.3856 34.5308 25.6811 35.58 28.1167 35.9095C30.5524 36.239 33.0273 35.8351 35.2515 34.7453C37.4757 33.6555 39.357 31.9248 40.675 29.7561C41.9929 27.5873 42.6929 25.0704 42.6929 22.5003C42.6929 19.9301 41.9929 17.4132 40.675 15.2445C39.357 13.0758 37.4757 11.3451 35.2515 10.2552C33.0273 9.16541 30.5524 8.76158 28.1167 9.09108C25.6811 9.42058 23.3856 10.4698 21.4993 12.1157C19.1811 10.0852 16.2531 8.97472 13.2301 8.97951ZM29.7686 12.441C32.3173 12.4433 34.7611 13.5038 36.5635 15.3898C38.366 17.2757 39.3797 19.8329 39.3824 22.5003C39.3802 25.1679 38.3666 27.7256 36.5641 29.6119C34.7617 31.4982 32.3176 32.559 29.7686 32.5612C27.4896 32.5612 25.4222 31.6785 23.7734 30.2887C25.3173 28.0128 26.1483 25.2915 26.1516 22.5003C26.1483 19.7091 25.3173 16.9878 23.7734 14.7118C25.4222 13.3203 27.4896 12.4393 29.7686 12.4393V12.441Z" fill="#555555"/>
</svg>
