<svg width="30" height="20" viewBox="0 0 30 20" fill="none" xmlns="http://www.w3.org/2000/svg">
<path fill-rule="evenodd" clip-rule="evenodd" d="M9 8C10.6569 8 12 6.65685 12 5C12 3.34315 10.6569 2 9 2C7.34315 2 6 3.34315 6 5C6 6.65685 7.34315 8 9 8ZM9 10C11.7614 10 14 7.76142 14 5C14 2.23858 11.7614 0 9 0C6.23858 0 4 2.23858 4 5C4 7.76142 6.23858 10 9 10Z" fill="white"/>
<path fill-rule="evenodd" clip-rule="evenodd" d="M13.9 6C13.9656 5.67688 14 5.34247 14 5C14 4.65753 13.9656 4.32312 13.9 4H30V6H13.9ZM4.10004 6H0V4H4.10004C4.03442 4.32312 4 4.65753 4 5C4 5.34247 4.03442 5.67688 4.10004 6Z" fill="white"/>
<path fill-rule="evenodd" clip-rule="evenodd" d="M22 18C23.6569 18 25 16.6569 25 15C25 13.3431 23.6569 12 22 12C20.3431 12 19 13.3431 19 15C19 16.6569 20.3431 18 22 18ZM22 20C24.7614 20 27 17.7614 27 15C27 12.2386 24.7614 10 22 10C19.2386 10 17 12.2386 17 15C17 17.7614 19.2386 20 22 20Z" fill="white"/>
<path fill-rule="evenodd" clip-rule="evenodd" d="M26.9 16C26.9656 15.6769 27 15.3425 27 15C27 14.6575 26.9656 14.3231 26.9 14H30V16H26.9ZM17.1 16H0V14H17.1C17.0344 14.3231 17 14.6575 17 15C17 15.3425 17.0344 15.6769 17.1 16Z" fill="white"/>
</svg>
