<svg width="122" height="21" viewBox="0 0 122 21" fill="none" xmlns="http://www.w3.org/2000/svg">
<path d="M10 0.5L12.7038 6.77852L19.5106 7.40983L14.3749 11.9215L15.8779 18.5902L10 15.1L4.12215 18.5902L5.62514 11.9215L0.489435 7.40983L7.29619 6.77852L10 0.5Z" fill="black"/>
<path d="M61 0.5L63.7038 6.77852L70.5106 7.40983L65.3749 11.9215L66.8779 18.5902L61 15.1L55.1221 18.5902L56.6251 11.9215L51.4894 7.40983L58.2962 6.77852L61 0.5Z" fill="black"/>
<path d="M35 0.5L37.7038 6.77852L44.5106 7.40983L39.3749 11.9215L40.8779 18.5902L35 15.1L29.1221 18.5902L30.6251 11.9215L25.4894 7.40983L32.2962 6.77852L35 0.5Z" fill="black"/>
<path d="M86 0.5L88.7038 6.77852L95.5106 7.40983L90.3749 11.9215L91.8779 18.5902L86 15.1L80.1221 18.5902L81.6251 11.9215L76.4894 7.40983L83.2962 6.77852L86 0.5Z" fill="black"/>
<path d="M112 0.5L114.704 6.77852L121.511 7.40983L116.375 11.9215L117.878 18.5902L112 15.1L106.122 18.5902L107.625 11.9215L102.489 7.40983L109.296 6.77852L112 0.5Z" fill="black"/>
</svg>
